<!-- Icon made by prettycons from https://www.flaticon.com/free-icon/browser_634199 -->
<?xml version="1.0" encoding="iso-8859-1"?>
<!--Generator: Adobe Illustrator 19.0.0, SVG Export Plug-In . SVG Version: 6.00 Build 0)-->
<svg version="1.1" id="Capa_1" xmlns="http://www.w3.org/2000/svg" xmlns:xlink="http://www.w3.org/1999/xlink" x="0px" y="0px" viewBox="0 0 512 512" style="enable-background:new 0 0 512 512" xml:space="preserve">
    <path style="fill:#ecf0f1" d="M483.31,512H28.69C12.844,512,0,499.156,0,483.31V105.931h512V483.31
	C512,499.156,499.156,512,483.31,512z"/>
    <path style="fill:#687492" d="M512,105.931H0V28.69C0,12.844,12.844,0,28.69,0H483.31C499.156,0,512,12.844,512,28.69V105.931z"/>
    <rect x="35.31" y="35.31" style="fill:#e64c3c" width="35.31" height="35.31"/>
    <rect x="105.931" y="35.31" style="fill:#f0c419" width="35.31" height="35.31"/>
    <rect x="176.552" y="35.31" style="fill:#24ae5f" width="35.31" height="35.31"/>
    <g>
        <rect x="247.172" y="105.931" style="fill:#bdc3c7" width="17.655" height="406.069"/>
        <path style="fill:#bdc3c7" d="M194.207,176.552H44.138c-4.873,0-8.828-3.946-8.828-8.828s3.955-8.828,8.828-8.828h150.069
		c4.873,0,8.828,3.946,8.828,8.828S199.08,176.552,194.207,176.552z"/>
        <path style="fill:#bdc3c7" d="M211.862,211.862H44.138c-4.873,0-8.828-3.946-8.828-8.828s3.955-8.828,8.828-8.828h167.724
		c4.873,0,8.828,3.946,8.828,8.828S216.735,211.862,211.862,211.862z"/>
        <path style="fill:#bdc3c7" d="M211.862,247.172H44.138c-4.873,0-8.828-3.946-8.828-8.828c0-4.882,3.955-8.828,8.828-8.828h167.724
		c4.873,0,8.828,3.946,8.828,8.828C220.69,243.226,216.735,247.172,211.862,247.172z"/>
        <path style="fill:#bdc3c7" d="M211.862,282.483H44.138c-4.873,0-8.828-3.946-8.828-8.828s3.955-8.828,8.828-8.828h167.724
		c4.873,0,8.828,3.946,8.828,8.828S216.735,282.483,211.862,282.483z"/>
        <path style="fill:#bdc3c7" d="M211.862,317.793H44.138c-4.873,0-8.828-3.946-8.828-8.828c0-4.882,3.955-8.828,8.828-8.828h167.724
		c4.873,0,8.828,3.946,8.828,8.828C220.69,313.847,216.735,317.793,211.862,317.793z"/>
        <path style="fill:#bdc3c7" d="M211.862,353.103H44.138c-4.873,0-8.828-3.946-8.828-8.828c0-4.882,3.955-8.828,8.828-8.828h167.724
		c4.873,0,8.828,3.946,8.828,8.828C220.69,349.158,216.735,353.103,211.862,353.103z"/>
        <path style="fill:#bdc3c7" d="M211.862,388.414H44.138c-4.873,0-8.828-3.946-8.828-8.828c0-4.882,3.955-8.828,8.828-8.828h167.724
		c4.873,0,8.828,3.946,8.828,8.828C220.69,384.468,216.735,388.414,211.862,388.414z"/>
        <path style="fill:#bdc3c7" d="M211.862,423.724H44.138c-4.873,0-8.828-3.946-8.828-8.828c0-4.882,3.955-8.828,8.828-8.828h167.724
		c4.873,0,8.828,3.946,8.828,8.828C220.69,419.778,216.735,423.724,211.862,423.724z"/>
        <path style="fill:#bdc3c7" d="M211.862,459.034H44.138c-4.873,0-8.828-3.946-8.828-8.828c0-4.882,3.955-8.828,8.828-8.828h167.724
		c4.873,0,8.828,3.946,8.828,8.828C220.69,455.089,216.735,459.034,211.862,459.034z"/>
        <path style="fill:#bdc3c7" d="M450.207,176.552H300.138c-4.873,0-8.828-3.946-8.828-8.828s3.955-8.828,8.828-8.828h150.069
		c4.873,0,8.828,3.946,8.828,8.828S455.08,176.552,450.207,176.552z"/>
        <path style="fill:#bdc3c7" d="M467.862,211.862H300.138c-4.873,0-8.828-3.946-8.828-8.828s3.955-8.828,8.828-8.828h167.724
		c4.873,0,8.828,3.946,8.828,8.828S472.735,211.862,467.862,211.862z"/>
        <path style="fill:#bdc3c7" d="M467.862,247.172H300.138c-4.873,0-8.828-3.946-8.828-8.828c0-4.882,3.955-8.828,8.828-8.828
		h167.724c4.873,0,8.828,3.946,8.828,8.828C476.69,243.226,472.735,247.172,467.862,247.172z"/>
        <path style="fill:#bdc3c7" d="M467.862,282.483H300.138c-4.873,0-8.828-3.946-8.828-8.828s3.955-8.828,8.828-8.828h167.724
		c4.873,0,8.828,3.946,8.828,8.828S472.735,282.483,467.862,282.483z"/>
        <path style="fill:#bdc3c7" d="M467.862,317.793H300.138c-4.873,0-8.828-3.946-8.828-8.828c0-4.882,3.955-8.828,8.828-8.828
		h167.724c4.873,0,8.828,3.946,8.828,8.828C476.69,313.847,472.735,317.793,467.862,317.793z"/>
        <path style="fill:#bdc3c7" d="M467.862,353.103H300.138c-4.873,0-8.828-3.946-8.828-8.828c0-4.882,3.955-8.828,8.828-8.828
		h167.724c4.873,0,8.828,3.946,8.828,8.828C476.69,349.158,472.735,353.103,467.862,353.103z"/>
        <path style="fill:#bdc3c7" d="M467.862,388.414H300.138c-4.873,0-8.828-3.946-8.828-8.828c0-4.882,3.955-8.828,8.828-8.828
		h167.724c4.873,0,8.828,3.946,8.828,8.828C476.69,384.468,472.735,388.414,467.862,388.414z"/>
        <path style="fill:#bdc3c7" d="M467.862,423.724H300.138c-4.873,0-8.828-3.946-8.828-8.828c0-4.882,3.955-8.828,8.828-8.828
		h167.724c4.873,0,8.828,3.946,8.828,8.828C476.69,419.778,472.735,423.724,467.862,423.724z"/>
        <path style="fill:#bdc3c7" d="M467.862,459.034H300.138c-4.873,0-8.828-3.946-8.828-8.828c0-4.882,3.955-8.828,8.828-8.828
		h167.724c4.873,0,8.828,3.946,8.828,8.828C476.69,455.089,472.735,459.034,467.862,459.034z"/>
    </g>
    <g/>
    <g/>
    <g/>
    <g/>
    <g/>
    <g/>
    <g/>
    <g/>
    <g/>
    <g/>
    <g/>
    <g/>
    <g/>
    <g/>
    <g/>
</svg>
