<!-- Icon made by Smashicons from www.flaticon.com -->
<svg height="512" viewBox="0 0 58 48" width="512" xmlns="http://www.w3.org/2000/svg">
    <g id="Page-1" fill="none" fill-rule="evenodd">
        <g id="044---Uploading-to-Cloud" fill-rule="nonzero">
            <path id="Shape" d="m54 48c2.209139 0 4-1.790861 4-4v-40c0-2.209139-1.790861-4-4-4h-50c-2.209139 0-4 1.790861-4 4v40c0 2.209139 1.790861 4 4 4z" fill="#ecf0f1"/>
            <path id="Shape" d="m41 36c3.1807724.0044456 5.8122877-2.474082 5.9981354-5.6494235.1858478-3.1753415-2.1385619-5.9439316-5.2981354-6.3105765.6465852-2.1223666.2487374-4.4255998-1.0723497-6.2080815-1.3210872-1.7824818-3.4089771-2.8331395-5.6276503-2.8319185-1.7265423-.0026923-3.3919108.6392057-4.67 1.8-1.5168611-3.4692999-5.258175-5.4000558-8.9646953-4.6263529-3.7065204.7737028-6.3630081 4.0399425-6.3653047 7.8263529-.0020456 1.433048.3850591 2.8397591 1.12 4.07-3.0932205.4763592-5.3007342 3.250269-5.0705027 6.3714746.2302314 3.1212057 2.8208653 5.5411868 5.9505027 5.5585254z" fill="#3b97d3"/>
            <path id="Shape" d="m47 30c0 3.3137085-2.6862915 6-6 6h-24c-3.3137085 0-6-2.6862915-6-6 .0005621-.8600675.1882355-1.7097162.55-2.49.9811618 2.1261414 3.1083867 3.488346 5.45 3.49h24c2.3416133-.001654 4.4688382-1.3638586 5.45-3.49.3663879.7787148.554292 1.6294081.55 2.49z" fill="#2980ba"/>
            <path id="Shape" d="m58 4v4h-58v-4c0-2.209139 1.790861-4 4-4h50c2.209139 0 4 1.790861 4 4z" fill="#3b97d3"/>
            <path id="Shape" d="m32 3h-6c-.5522847 0-1 .44771525-1 1s.4477153 1 1 1h6c.5522847 0 1-.44771525 1-1s-.4477153-1-1-1z" fill="#2980ba"/>
            <path id="Shape" d="m54 3h-11c-.5522847 0-1 .44771525-1 1s.4477153 1 1 1h11c.5522847 0 1-.44771525 1-1s-.4477153-1-1-1z" fill="#2980ba"/>
            <circle id="Oval" cx="4" cy="4" fill="#ff5364" r="1"/>
            <circle id="Oval" cx="8" cy="4" fill="#f0c419" r="1"/>
            <g fill="#65ddb9">
                <circle id="Oval" cx="12" cy="4" r="1"/>
                <path id="Shape" d="m34.549 30.341-4.8-5.481c-.1898961-.217306-.464413-.3419795-.753-.3419795s-.5631039.1246735-.753.3419795l-4.8 5.481c-.2592425.2958744-.320934.7162527-.157632 1.0741365s.521256.5867783.914632.5848635h2.8v10c0 .5522847.4477153 1 1 1h2c.5522847 0 1-.4477153 1-1v-10h2.8c.391927-.0012301.7470061-.2313007.9082785-.5885114s.0990046-.7757037-.1592785-1.0704886z"/>
            </g>
        </g>
    </g>
</svg>
