<svg height="512" viewBox="0 0 64 64" width="512" xmlns="http://www.w3.org/2000/svg"><g id="Filled_outline" data-name="Filled outline"><path d="m57 61h-50v-38l25-20 25 20z" fill="#e6f1fd"/><path d="m18 22h6a8 8 0 0 1 8 8v2a0 0 0 0 1 0 0h-6a8 8 0 0 1 -8-8v-2a0 0 0 0 1 0 0z" fill="#55b56a"/><path d="m26.5 23.592h2v10.817h-2z" fill="#c8d952" transform="matrix(.555 -.832 .832 .555 -11.884 35.795)"/><path d="m40 27h6a0 0 0 0 1 0 0v2a8 8 0 0 1 -8 8h-6a0 0 0 0 1 0 0v-2a8 8 0 0 1 8-8z" fill="#8ec13f" transform="matrix(-1 0 0 -1 78 64)"/><path d="m31.092 33h10.817v2h-10.817z" fill="#c8d952" transform="matrix(.832 -.555 .555 .832 -12.73 25.957)"/><path d="m22 53 4-1 4 1 4-1 4 2 4-1v8h-20z" fill="#66342e"/><path d="m7 53h15v8h-15z" fill="#d3843d"/><path d="m42 53h15v8h-15z" fill="#d3843d"/><path d="m27 55h2v2h-2z" fill="#995f5b"/><path d="m33 56h2v2h-2z" fill="#995f5b"/><path d="m6 56h6v2h-6z" fill="#ad6327"/><path d="m14 56h7v2h-7z" fill="#ad6327"/><path d="m52 56h5v2h-5z" fill="#ad6327"/><path d="m42 56h8v2h-8z" fill="#ad6327"/><path d="m13 32h2v21h-2z" fill="#87cee9"/><path d="m13 17h2v11h-2z" fill="#87cee9"/><path d="m24 9h2v10h-2z" fill="#87cee9"/><path d="m49 42h2v11h-2z" fill="#87cee9"/><path d="m49 17h2v23h-2z" fill="#87cee9"/><path d="m38 9h2v15h-2z" fill="#87cee9"/><path d="m38 40h2v14h-2z" fill="#32b1cc"/><path d="m24 35h2v17h-2z" fill="#32b1cc"/><g fill="#87cee9"><path d="m42 44h15v2h-15z"/><path d="m7 44h15v2h-15z"/><path d="m7 35h7v2h-7z"/><path d="m50 35h7v2h-7z"/><path d="m25 15h14v2h-14z"/><path d="m39 19h7v2h-7z"/><path d="m18 34h2v2h-2z"/><path d="m44 39h2v2h-2z"/></g><path d="m49 6h2v2h-2z" fill="#fcf05a"/><path d="m49 10h2v2h-2z" fill="#fcf05a"/><path d="m47 8h2v2h-2z" fill="#fcf05a"/><path d="m51 8h2v2h-2z" fill="#fcf05a"/><path d="m15 2h2v2h-2z" fill="#fcf05a"/><path d="m15 6h2v2h-2z" fill="#fcf05a"/><path d="m13 4h2v2h-2z" fill="#fcf05a"/><path d="m17 4h2v2h-2z" fill="#fcf05a"/><path d="m31 33h2v20h-2z" fill="#3a8448"/><path d="m58 62v-39.48l-26-20.801-26 20.801v39.48zm-35-8.219 3-.75 3.758.939a.991.991 0 0 0 .484 0l3.642-.91 3.669 1.84a1 1 0 0 0 .689.075l2.758-.694v5.719h-18zm20 6.219v-2h7v-2h-7v-2h13v2h-4v2h4v2zm13-8h-5v-6h5zm0-17h-5v-15.519l5 4zm-18-25.919v5.919h-12v-5.919l6-4.8zm-25 10.4v8.519h2v-10.119l9-7.2v8.319h2v-2h12v7h2v-3h6v-2h-6v-8.319l9 7.2v22.119h2v-3h5v7h-5v-2h-2v2h-7v2h7v6h-7a1.838 1.838 0 0 0 -.242.03l-1.758.439v-12.469h-2v12.882l-3.553-1.777a1 1 0 0 0 -.689-.075l-.758.189v-13.219h5a9.01 9.01 0 0 0 9-9v-3h-7a8.986 8.986 0 0 0 -7.031 3.4 9 9 0 0 0 -8.969-8.4h-7v3a9.01 9.01 0 0 0 9 9h5v18.719l-1 .25-3.758-.939a.984.984 0 0 0 -.242-.03v-16h-2v16.469l-2.123.531h-6.877v-6h7v-2h-7v-12h-2v3h-5v-11.52zm18 10.651-7.445-4.964-1.11 1.664 6.255 4.168h-2.7a7.008 7.008 0 0 1 -7-7v-1h5a7.008 7.008 0 0 1 7 7zm9.445.036-7.445 4.964v-.132a7.008 7.008 0 0 1 7-7h5v1a7.008 7.008 0 0 1 -7 7h-2.7l6.252-4.168zm-27.445 13.832h-5v-7h5zm-5 2h5v6h-5zm0 12h4v-2h-4v-2h13v2h-7v2h7v2h-13z"/><path d="m27 55h2v2h-2z"/><path d="m33 56h2v2h-2z"/><path d="m18 34h2v2h-2z"/><path d="m44 39h2v2h-2z"/><path d="m49 6h2v2h-2z"/><path d="m49 10h2v2h-2z"/><path d="m47 8h2v2h-2z"/><path d="m51 8h2v2h-2z"/><path d="m15 2h2v2h-2z"/><path d="m15 6h2v2h-2z"/><path d="m13 4h2v2h-2z"/><path d="m17 4h2v2h-2z"/></g></svg>