<svg viewBox="-19 0 512 512.00002" xmlns="http://www.w3.org/2000/svg" xmlns:xlink="http://www.w3.org/1999/xlink"><radialGradient id="a" cx="347.78276152" cy="126.33093252" gradientUnits="userSpaceOnUse" r="119.28540416"><stop offset="0" stop-color="#ffb92d"/><stop offset=".336" stop-color="#fec259" stop-opacity=".662745"/><stop offset=".782" stop-color="#fccd8d" stop-opacity=".219608"/><stop offset="1" stop-color="#fbd1a2" stop-opacity="0"/></radialGradient><radialGradient id="b" cx="327.82025376" cy="92.86493892" gradientUnits="userSpaceOnUse" r="126.63536236"><stop offset="0" stop-color="#feffb3"/><stop offset=".2201" stop-color="#fefdb0"/><stop offset=".3901" stop-color="#fef8a6"/><stop offset=".5433" stop-color="#fef096"/><stop offset=".6866" stop-color="#fee47e"/><stop offset=".8232" stop-color="#ffd460"/><stop offset=".9528" stop-color="#ffc13c"/><stop offset="1" stop-color="#ffb92d"/></radialGradient><linearGradient id="c" gradientUnits="userSpaceOnUse" x1="66.33524556" x2="554.80463268" y1="176.20846204" y2="664.67784916"><stop offset="0" stop-color="#fff"/><stop offset="1" stop-color="#62e1fb"/></linearGradient><linearGradient id="d"><stop offset="0" stop-color="#00a2f3" stop-opacity="0"/><stop offset="1" stop-color="#0075cd"/></linearGradient><linearGradient id="e" gradientUnits="userSpaceOnUse" x1="236.94155988" x2="236.94155988" xlink:href="#d" y1="436.12980788" y2="509.9572374"/><linearGradient id="f" gradientUnits="userSpaceOnUse" x1="194.82379796" x2="72.6590836" xlink:href="#d" y1="174.23179696" y2="52.06601816"/><linearGradient id="g" gradientUnits="userSpaceOnUse" x1="396.62778424" x2="159.51632316" xlink:href="#d" y1="421.00517992" y2="183.89478328"/><linearGradient id="h" gradientUnits="userSpaceOnUse" x1="295.42615124" x2="85.44726576" xlink:href="#d" y1="457.75922868" y2="247.7803432"/><linearGradient id="i"><stop offset="0" stop-color="#cfffb4"/><stop offset="1" stop-color="#8ee388"/></linearGradient><linearGradient id="j" gradientTransform="matrix(.91169 -.54936 .54936 .91169 1585.847 -854.436)" gradientUnits="userSpaceOnUse" x1="-1677.889" x2="-1518.64" xlink:href="#i" y1="243.592" y2="402.84"/><linearGradient id="k" gradientTransform="matrix(1.04677 -.19309 .19309 1.04677 452.958 -100.106)" gradientUnits="userSpaceOnUse" x1="-355.139" x2="-340.132" xlink:href="#i" y1="299.098" y2="423.246"/><linearGradient id="l"><stop offset="0" stop-color="#8ee388" stop-opacity="0"/><stop offset="1" stop-color="#4b9345"/></linearGradient><linearGradient id="m" gradientTransform="matrix(1.04677 -.19309 .19309 1.04677 452.958 -100.106)" gradientUnits="userSpaceOnUse" x1="-220.333" x2="-258.027" xlink:href="#l" y1="360.184" y2="239.247"/><linearGradient id="n" gradientTransform="matrix(1.04677 -.19309 .19309 1.04677 452.958 -100.106)" gradientUnits="userSpaceOnUse" x1="-361.035" x2="-277.339" xlink:href="#l" y1="352.637" y2="183.143"/><linearGradient id="o"><stop offset="0" stop-color="#4e6d79"/><stop offset="1" stop-color="#2b4c56"/></linearGradient><linearGradient id="p" gradientUnits="userSpaceOnUse" x1="34.7117976" x2="50.6783976" xlink:href="#o" y1="347.5236934" y2="347.5236934"/><linearGradient id="q" gradientUnits="userSpaceOnUse" x1="131.82172324" x2="147.78832324" xlink:href="#o" y1="310.02560108" y2="310.02560108"/><linearGradient id="r" gradientTransform="matrix(0 1.06444 -1.06444 0 522.532 29.617)" gradientUnits="userSpaceOnUse" x1="182.003" x2="197.003" xlink:href="#o" y1="268.326" y2="268.326"/><linearGradient id="s" gradientTransform="matrix(0 1.06444 -1.06444 0 522.532 29.617)" gradientUnits="userSpaceOnUse" x1="316.811" x2="331.811" xlink:href="#o" y1="268.326" y2="268.326"/><linearGradient id="t" gradientUnits="userSpaceOnUse" x1="326.04263896" x2="342.00923896" xlink:href="#o" y1="310.02560108" y2="310.02560108"/><linearGradient id="u" gradientUnits="userSpaceOnUse" x1="423.15150016" x2="439.11810016" xlink:href="#o" y1="347.5236934" y2="347.5236934"/><linearGradient id="v" gradientUnits="userSpaceOnUse" x1="236.91494888" x2="236.91494888" y1="488.91112972" y2="510.8354004"><stop offset="0" stop-color="#ffb92d"/><stop offset="1" stop-color="#f59500"/></linearGradient><linearGradient id="w" gradientUnits="userSpaceOnUse" x1="236.91494888" x2="236.91494888" xlink:href="#o" y1="150.4106942" y2="343.5001102"/><linearGradient id="x" gradientUnits="userSpaceOnUse" x1="346.53843116" x2="173.58289776" y1="128.2490534" y2="-44.70648"><stop offset="0" stop-color="#2b4c56" stop-opacity="0"/><stop offset="1" stop-color="#2b4c56"/></linearGradient><radialGradient id="y" cx="411.32876508" cy="49.72212128" gradientUnits="userSpaceOnUse" r="246.64245684"><stop offset="0" stop-color="#feffb3"/><stop offset="1" stop-color="#feffb3" stop-opacity="0"/></radialGradient><path d="m473.832031 126.332031c0 69.769531-56.558593 126.328125-126.332031 126.328125-69.769531 0-126.328125-56.558594-126.328125-126.328125 0-69.773437 56.558594-126.332031 126.328125-126.332031 69.773438 0 126.332031 56.558594 126.332031 126.332031zm0 0" fill="url(#a)"/><path d="m425.882812 126.332031c0 43.285157-35.09375 78.378907-78.382812 78.378907s-78.378906-35.09375-78.378906-78.378907c0-43.289062 35.089844-78.382812 78.378906-78.382812s78.382812 35.09375 78.382812 78.382812zm0 0" fill="url(#b)"/><path d="m427.605469 200.613281v293.558594h-381.328125v-293.558594l190.664062-191.820312zm0 0" fill="url(#c)"/><path d="m46.277344 396.949219h381.328125v97.222656h-381.328125zm0 0" fill="url(#e)"/><path d="m427.605469 200.613281v293.558594h-120.398438l-260.929687-260.933594v-32.625l190.664062-191.820312zm0 0" fill="url(#f)"/><path d="m348.9375 174.042969c-.023438-.019531-.03125-.042969-.054688-.050781 0-.011719-.011718-.023438-.03125-.03125-.0625-.054688-.105468-.097657-.160156-.140626-.128906-.128906-.285156-.234374-.445312-.328124-.023438-.023438-.054688-.042969-.085938-.054688 0 0-.011718-.019531-.023437-.019531-.03125-.023438-.0625-.035157-.09375-.042969 0-.011719-.011719-.011719-.023438-.011719-.15625-.0625-.328125-.128906-.476562-.171875-.128907-.019531-.246094-.042968-.382813-.050781-.066406-.011719-.128906-.011719-.203125-.011719-.171875-.011718-.328125-.011718-.488281.011719-.332031.042969-.652344.148437-.949219.296875-.285156.136719-.542969.332031-.777343.574219-.09375.105469-.203126.222656-.285157.363281-.011719.011719-.023437.019531-.035156.042969-.082031.136719-.167969.296875-.234375.46875-3.394531 8.515625-12.441406 24.777343-35.527344 40.9375-.980468.679687-1.992187 1.371093-3.023437 2.054687-.523438.339844-1.042969.691406-1.566407 1.03125-1.0625.683594-2.148437 1.375-3.265624 2.054688-.554688.339844-1.121094.679687-1.683594 1.023437-1.148438.679688-2.308594 1.359375-3.511719 2.03125-2.980469 1.691407-6.152344 3.363281-9.496094 5.015625-2.683593 1.316406-5.480469 2.628906-8.398437 3.90625-.511719.222656-1.011719.445313-1.523438.679688-.5.234375-1.007812.46875-1.511718.703125-.5.246093-1.007813.488281-1.507813.734375-.992187.488281-1.992187 1-2.980469 1.53125-.929687.492187-1.863281 1-2.78125 1.523437-.050781.03125-.105468.0625-.160156.09375-.976562.566407-1.945312 1.128907-2.902344 1.726563-.480468.289062-.960937.585937-1.4375.894531-.46875.296875-.949218.605469-1.417968.914063-.402344.265624-.808594.53125-1.210938.808593-.671875.449219-1.34375.90625-2.011719 1.386719-.332031.222656-.652343.457031-.96875.691406-1.332031.957032-2.640625 1.945313-3.941406 2.957032-.5.394531-.988281.789062-1.476563 1.191406-.449218.363281-.886718.726562-1.320312 1.097656-.4375.363281-.875.734375-1.300781 1.105469-3.042969 2.632812-5.960938 5.441406-8.726563 8.421875-.394531.402344-.765625.820312-1.140625 1.222656-.394531.4375-.777343.863281-1.160156 1.300781-.394531.433594-.765625.871094-1.136719 1.320313-.757812.882812-1.503906 1.777344-2.226562 2.679687l-.988282 1.246094c-.191406.234375-.375.480469-.554687.722656-.371094.46875-.734375.949219-1.085937 1.4375-.363282.480469-.722657.96875-1.0625 1.460938-1.886719 2.617187-3.664063 5.320312-5.324219 8.121093-.605469 1.011719-1.203125 2.042969-1.765625 3.074219-.585938 1.035157-1.140625 2.085938-1.683594 3.152344-.476562.9375-.957031 1.894531-1.414062 2.851563-.574219 1.191406-1.128907 2.40625-1.652344 3.628906-.242188.554687-.476563 1.109375-.699219 1.660156-.234375.554688-.460937 1.121094-.683594 1.671875-.222656.566406-.445312 1.128906-.660156 1.695313-.636719 1.691406-1.246094 3.414062-1.796875 5.160156-.191406.585937-.375 1.171875-.554688 1.757812-.171874.574219-.339843 1.160156-.511718 1.734375-.011719.011719-.011719.03125-.011719.042969-.167969.585938-.328125 1.171875-.488281 1.753906-.160156.597656-.320313 1.203125-.46875 1.800782-.148438.597656-.285156 1.203124-.4375 1.808593-.136719.609375-.273438 1.214844-.402344 1.820313-.394531 1.820312-.746094 3.671875-1.042969 5.535156-.011719.011719-.011719.023438-.011719.042969-.011718 0-.011718 0 0 .011719-.117187.722656-.222656 1.445312-.328124 2.179687-.109376.746094-.203126 1.492187-.300782 2.246094-.09375.757812-.167968 1.511719-.253906 2.269531-.074219.753906-.136719 1.519531-.203125 2.289062-.679687 8.375-.445313 17.09375.808594 26.078126.628906 4.4375 1.5 8.953124 2.652343 13.519531.074219.308593.179688.582031.320313.839843.050781.105469.117187.210938.179687.320313.0625.117187.148438.222656.222657.316406.011719.011719.011719.023438.023437.035157.082032.09375.15625.179687.230469.253906.085937.09375.183594.179687.277344.253906l.257812.191406c.125.085938.242188.160156.371094.214844.820313.46875 13.976563 14.390625 14.414063 14.390625.007812 0 .007812 0 .007812-.011719-.96875 4.332032-1.820312 8.773438-2.53125 13.304688-.171875 1.140625-.339844 2.28125-.511719 3.429687-.480469 3.449219-.882812 6.960938-1.203125 10.527344-.148437 1.628906-.277344 3.265625-.371094 4.917969-.105468 1.648437-.203124 3.308594-.277343 4.96875-.011719.097656-.011719.203125-.011719.300781-.050781 1.4375-.105469 2.882813-.136719 4.34375-.03125 2.042969-.054687 4.117187-.03125 6.191406.019531 2.992188.09375 6.003907.242188 9.058594-.007813.066406 0 .117187 0 .183594.054687.945312.097656 1.894531.160156 2.839843 0 .066407 0 .128907.011719.191407v.011719c.042968.808593.09375 1.628906.160156 2.449218.011719.191406.03125.382813.0625.574219.011719.128906.03125.246094.0625.363281.023438.148438.042969.296875.085938.433594.097656.449219.246093.882812.40625 1.308594.105468.300781.222656.578125.359374.851562.109376.234375.234376.46875.363282.683594.222656.371094.46875.710938.734375 1.042969l1.351562 1.351562 41.355469 41.34375h157.078125v-241.265625c-32.410156-32.488281-76.425781-76.597656-78.671875-78.867187zm0 0" fill="url(#g)"/><path d="m387.683594 494.175781h-111.714844l-37.554688-37.585937-12.824218-12.816406v-.011719l-94.289063-94.339844-.285156-.289063c-.480469-.445312-.949219-.894531-1.429687-1.351562-.464844-.445312-.925782-.902344-1.394532-1.371094-.019531-.023437-.03125-.042968-.050781-.066406-1.011719-1.019531-2.011719-2.0625-3.003906-3.136719-.03125-.035156-.0625-.066406-.09375-.097656-.457031-.5-.914063-1.011719-1.375-1.53125-.445313-.511719-.902344-1.035156-1.339844-1.554687-1.011719-1.171876-1.992187-2.386719-2.949219-3.621094-.394531-.507813-.796875-1.03125-1.191406-1.554688-1.4375-1.914062-2.820312-3.90625-4.152344-5.96875-.425781-.648437-.839844-1.320312-1.253906-1.992187-.351562-.5625-.691406-1.136719-1.035156-1.714844-.0625-.105469-.125-.210937-.191406-.328125-.277344-.457031-.542969-.925781-.808594-1.394531-1.09375-1.9375-2.136719-3.925781-3.128906-5.992188-.253907-.53125-.511719-1.066406-.753907-1.609375-.085937-.167968-.171875-.339844-.246093-.519531-.265626-.585937-.53125-1.183594-.789063-1.777344-.636719-1.46875-1.253906-2.980469-1.839844-4.515625-.585937-1.53125-1.140625-3.105468-1.671875-4.703125-.234375-.691406-.457031-1.394531-.679687-2.097656-.894531-2.875-1.695313-5.832031-2.375-8.910156-.136719-.585938-.265625-1.167969-.382813-1.753907-.128906-.585937-.246094-1.171874-.351562-1.769531-.105469-.542969-.214844-1.085937-.308594-1.636719-.03125-.097656-.054688-.191406-.054688-.300781-.09375-.550781-.191406-1.105469-.285156-1.660156-.085937-.425781-.148437-.851563-.214844-1.277344-.117187-.753906-.222656-1.511719-.328124-2.285156-.105469-.777344-.203126-1.566406-.300782-2.355469-.09375-.796875-.191406-1.605468-.265625-2.425781-.082031-.808594-.160156-1.617187-.222656-2.4375s-.128906-1.640625-.179687-2.457031v-.054688c-.054688-.820312-.105469-1.648437-.140626-2.492187-.03125-.636719-.0625-1.296875-.082031-1.945313-.054687-1.757812-.085937-3.546875-.085937-5.367187 0-2.222657.042968-4.492188.136718-6.789063 0 0 .011719 0 .011719-.011718 0-.0625.011719-.128907.011719-.191407.007812-.03125.007812-.0625.019531-.097656 0-.019531 0-.042969.011719-.050781l.03125-.160156c.011719-.042969.019531-.085938.03125-.128907 0-.019531 0-.03125.011719-.042969.019531-.042968.03125-.09375.054687-.136718.03125-.105469.082032-.214844.125-.308594.042969-.074219.085938-.148438.128906-.222656.074219-.128906.160157-.234375.246094-.34375.074219-.082032.15625-.167969.242188-.242188v-.011718c.085937-.074219.183594-.148438.277344-.214844.097656-.074219.203124-.136719.308593-.191406.097657-.050782.191407-.09375.289063-.136719.085937-.03125.167968-.0625.253906-.085938.054688-.019531.105469-.03125.160156-.042969.097656-.019531.179688-.03125.265625-.042968.085938-.019532.179688-.03125.277344-.03125 1.628906-.03125 3.960937-.03125 6.867187.074218.765626.03125 1.5625.066407 2.402344.109376.800782.039062 1.640625.082031 2.503906.148437.648438.050781 1.328126.09375 2.011719.160156.605469.039063 1.222657.105469 1.851563.15625.054687.011719.105468.011719.160156.011719.605469.066406 1.234375.128906 1.863281.203125.753907.074219 1.519531.160156 2.308594.253906.679687.085938 1.382813.171875 2.085937.265625 2.375.332032 4.875.726563 7.460938 1.203125.691406.128907 1.386719.257813 2.085938.394531.417968.085938.84375.171876 1.257812.257813.574219.117187 1.148438.242187 1.714844.371094 1.136718.265625 2.265625.554687 3.394531.863281.554687.148438 1.105469.308594 1.660156.476562.554688.160157 1.105469.34375 1.660157.511719 1.042968.339844 2.085937.703125 3.121093 1.074219.074219.035156.15625.066406.230469.097656.503906.179688 1.003906.371094 1.503906.574219.53125.214844 1.0625.425781 1.585938.648437.976562.417969 1.957031.84375 2.914062 1.300782 1.035156.476562 2.054688.976562 3.054688 1.511718.460937.234376.917968.476563 1.375.734376.445312.242187.90625.488281 1.351562.753906.445313.257812.894532.523437 1.339844.789062.277344.160156.554688.328125.832031.5.339844.203125.671875.414063 1.011719.636719.265625.160156.542969.34375.808594.523437.414062.277344.839844.554688 1.246094.828126.425781.289062.851562.585937 1.265624.886718.839844.582032 1.671876 1.191406 2.480469 1.828125.402344.308594.808594.628907 1.214844.949219 1.199219.96875 2.371094 1.957031 3.511719 2.980469.753906.691406 1.511718 1.382812 2.246094 2.097656.359374.351563.722656.710937 1.085937 1.074219.359375.363281.710937.722656 1.0625 1.097656.363281.371094.714844.742188 1.054687 1.117188.03125.019531.0625.050781.09375.09375 1.332032 1.332031 15.722657 15.722656 36.9375 36.925781-.011718 0-.011718 0 0 .011719 6.226563 6.214843 13.039063 13.027343 20.289063 20.277343 3.152344 3.140625 6.375 6.375 9.675781 9.664063 16.210938 16.210937 34.0625 34.0625 52.039063 52.03125 34.605469 34.59375 69.636719 69.613281 94.109375 94.085937zm0 0" fill="url(#h)"/><path d="m349.300781 174.570312c-1.144531-2.109374-4.222656-1.914062-5.109375.3125-4.617187 11.59375-19.734375 37.5625-66.472656 58.050782-44.886719 19.675781-79.457031 71.296875-63.769531 133.765625.953125 3.785156 6.339843 3.855469 7.335937.085937 11.300782-42.691406 38.476563-71.730468 59.4375-88.660156 2.484375-2.007812 5.695313 1.410156 3.527344 3.761719-26.324219 28.546875-64.285156 84.296875-58.496094 164.332031.226563 3.128906 1.972656 5.953125 4.707032 7.488281 4.78125 2.691407 12.160156 5.449219 14.730468-1.132812 2.019532-5.171875.304688-8.453125.136719-19.980469-.171875-11.761719 8.335937-21.976562 19.957031-23.796875 58.554688-9.1875 163.070313-88.804687 84.015625-234.226563zm0 0" fill="url(#j)"/><path d="m197.875 383.183594c-23.703125-5.179688-105.785156-30.144532-101.671875-126.875.0625-1.476563 1.269531-2.648438 2.746094-2.679688 5.1875-.105468 17.609375.066406 32.867187 3.222656 36.789063 7.613282 63.3125 39.78125 63.9375 77.34375.21875 13.085938 1.890625 28.367188 6.566406 44.25.808594 2.746094-1.648437 5.347657-4.445312 4.738282zm0 0" fill="url(#k)"/><path d="m345.519531 173.4375c-.855469 14.371094-8.238281 56.15625-61.269531 108.445312-26.324219 28.546876-64.285156 84.300782-58.496094 164.335938.226563 3.125 1.972656 5.953125 4.707032 7.488281 4.78125 2.6875 12.160156 5.449219 14.730468-1.132812 2.019532-5.171875.304688-8.453125.136719-19.980469-.171875-11.761719 8.335937-21.976562 19.957031-23.800781 58.554688-9.183594 163.070313-88.800781 84.015625-234.222657-.792969-1.460937-2.503906-1.792968-3.78125-1.132812zm0 0" fill="url(#m)"/><path d="m197.875 383.183594c1.234375.269531 2.398438-.085938 3.246094-.800782-16.375-19.386718-31.652344-49.277343-45.179688-77.378906-15.246094-31.667968-49.089844-47.296875-58.234375-51.042968-.855469.453124-1.457031 1.320312-1.5 2.347656-4.117187 96.730468 77.964844 121.695312 101.667969 126.875zm0 0" fill="url(#n)"/><path d="m34.710938 200.875h15.96875v293.296875h-15.96875zm0 0" fill="url(#p)"/><path d="m131.820312 125.878906h15.96875v368.292969h-15.96875zm0 0" fill="url(#q)"/><path d="m9.195312 223.347656h455.4375v15.96875h-455.4375zm0 0" fill="url(#r)"/><path d="m35.832031 366.84375h402.167969v15.964844h-402.167969zm0 0" fill="url(#s)"/><path d="m326.042969 125.878906h15.964843v368.292969h-15.964843zm0 0" fill="url(#t)"/><path d="m423.152344 200.875h15.964844v293.296875h-15.964844zm0 0" fill="url(#u)"/><path d="m434.855469 512h-395.878907c-10.257812 0-18.570312-8.3125-18.570312-18.570312v-4.167969c0-10.253907 8.3125-18.570313 18.570312-18.570313h395.878907c10.257812 0 18.570312 8.316406 18.570312 18.570313v4.167969c0 10.257812-8.3125 18.570312-18.570312 18.570312zm0 0" fill="url(#v)"/><path d="m470.722656 227.132812-222.308594-222.378906c-6.335937-6.335937-16.609374-6.335937-22.945312 0l-222.359375 222.359375c-4.144531 4.144531-4.144531 10.867188 0 15.011719l9.476563 9.476562c4.144531 4.144532 10.867187 4.144532 15.011718 0l206.324219-206.324218c1.667969-1.667969 4.371094-1.667969 6.039063 0l206.273437 206.34375c4.144531 4.144531 10.867187 4.144531 15.011719 0l9.476562-9.476563c4.144532-4.148437 4.144532-10.867187 0-15.011719zm0 0" fill="url(#w)"/><path d="m248.414062 4.753906c-3.167968-3.171875-7.320312-4.753906-11.472656-4.753906v44.027344c1.09375 0 2.1875.417968 3.023438 1.25l206.269531 206.34375c4.144531 4.144531 10.867187 4.144531 15.011719 0l9.476562-9.476563c4.144532-4.144531 4.144532-10.867187 0-15.011719zm0 0" fill="url(#x)"/><path d="m470.722656 227.128906-222.308594-222.375c-3.167968-3.171875-7.320312-4.753906-11.472656-4.753906s-8.304687 1.582031-11.472656 4.753906l-222.359375 222.359375c-4.144531 4.144531-4.144531 10.867188 0 15.011719l9.476563 9.476562c4.144531 4.144532 10.867187 4.144532 15.011718 0l7.113282-7.113281v226.714844c-8.199219 1.929687-14.308594 9.273437-14.308594 18.058594v4.167969c0 10.257812 8.316406 18.570312 18.570312 18.570312h395.882813c10.257812 0 18.570312-8.3125 18.570312-18.570312v-4.167969c0-8.785157-6.109375-16.128907-14.308593-18.058594v-226.703125l7.117187 7.121094c1.8125 1.8125 4.121094 2.832031 6.488281 3.058594 3.042969.292968 6.191406-.730469 8.523438-3.058594l9.476562-9.476563c1.8125-1.816406 2.832032-4.121093 3.058594-6.492187.035156-.335938.050781-.675782.050781-1.015625 0-2.714844-1.035156-5.433594-3.109375-7.507813zm0 0" fill="url(#y)"/></svg>