<svg xmlns="http://www.w3.org/2000/svg" xmlns:xlink="http://www.w3.org/1999/xlink" viewBox="0 0 512 512"><defs><clipPath id="a"><path d="M430.42,248.21c0-.29,0-.59,0-.89A80.72,80.72,0,0,0,330.52,169a74.6,74.6,0,0,0-148.92,0,80.72,80.72,0,0,0-99.93,78.36c0,.3,0,.6,0,.89a82.42,82.42,0,1,0,44.23,152.48,82.36,82.36,0,0,0,86.76,0,82.39,82.39,0,0,0,85.89.54,82.38,82.38,0,0,0,86.76-1.09,82.41,82.41,0,1,0,45.09-151.93Z" fill="#4c4c4c"/></clipPath></defs><path d="M430.42,248.21c0-.29,0-.59,0-.89A80.72,80.72,0,0,0,330.52,169a74.6,74.6,0,0,0-148.92,0,80.72,80.72,0,0,0-99.93,78.36c0,.3,0,.6,0,.89a82.42,82.42,0,1,0,44.23,152.48,82.36,82.36,0,0,0,86.76,0,82.39,82.39,0,0,0,85.89.54,82.38,82.38,0,0,0,86.76-1.09,82.41,82.41,0,1,0,45.09-151.93Z" fill="#4c4c4c"/><g clip-path="url(#a)"><line x1="170.34" y1="250.99" x2="75.6" y2="422.9" fill="#ba2b2b"/><path d="M167.75,249.47l-2.54,4.6-6.89,12.5-10.19,18.5-12.44,22.57-13.62,24.72-13.76,25L95.49,380.59,84.65,400.26,76.86,414.4c-1.23,2.23-2.5,4.44-3.69,6.7l-.16.28c-1.86,3.39,3.32,6.42,5.18,3l2.53-4.59,6.9-12.51,10.19-18.5,12.44-22.57,13.62-24.72,13.75-25,12.83-23.27,10.83-19.66,7.8-14.14c1.23-2.24,2.5-4.45,3.69-6.7l.16-.29c1.86-3.38-3.32-6.41-5.18-3Z" fill="#1788c1"/><line x1="170.68" y1="251.29" x2="199.61" y2="354.12" fill="#ba2b2b"/><path d="M167.79,252.09l2.87,10.2,6.9,24.52,8.38,29.8,7.21,25.65c1.17,4.15,2.21,8.37,3.51,12.48a1.54,1.54,0,0,1,.05.17c1,3.72,6.84,2.14,5.79-1.59l-2.87-10.21-6.9-24.51-8.38-29.8-7.21-25.65c-1.17-4.15-2.21-8.37-3.51-12.48a1.21,1.21,0,0,1,0-.18c-1.05-3.71-6.84-2.13-5.79,1.6Z" fill="#1788c1"/><line x1="339.02" y1="291.29" x2="311.56" y2="414.47" fill="#ba2b2b"/><path d="M336.13,290.5l-2.73,12.25-6.56,29.43-7.94,35.59L312,398.53c-1.11,5-2.32,9.94-3.33,14.93,0,.07,0,.14,0,.21a3.07,3.07,0,0,0,2.09,3.69,3,3,0,0,0,3.69-2.1L317.19,403l6.56-29.43L331.68,338l6.86-30.76c1.11-5,2.33-9.94,3.33-14.93,0-.07,0-.14,0-.21a3.07,3.07,0,0,0-2.09-3.69,3,3,0,0,0-3.69,2.1Z" fill="#1788c1"/><line x1="339.99" y1="291.29" x2="413.45" y2="421.88" fill="#ba2b2b"/><path d="M337.4,292.8l7.33,13,17.59,31.28,21.14,37.59,18.38,32.66c3,5.26,5.77,10.64,8.89,15.81l.13.23c1.89,3.36,7.07.34,5.18-3l-7.33-13-17.59-31.28L370,338.48,351.6,305.81c-3-5.26-5.77-10.64-8.89-15.8l-.13-.23c-1.89-3.37-7.08-.35-5.18,3Z" fill="#1788c1"/><ellipse cx="169.41" cy="244.54" rx="18.92" ry="19.36" transform="translate(-0.28 0.2) rotate(-0.07)" fill="#1788c1"/><ellipse cx="338.82" cy="284.59" rx="15.56" ry="15.92" transform="translate(-0.33 0.4) rotate(-0.07)" fill="#1788c1"/><ellipse cx="49.82" cy="318.16" rx="12.85" ry="13.16" transform="translate(-0.37 0.06) rotate(-0.07)" fill="#1788c1"/><ellipse cx="256.89" cy="293.26" rx="12.85" ry="13.16" transform="translate(-0.34 0.3) rotate(-0.07)" fill="#1788c1"/><ellipse cx="263.5" cy="156.77" rx="12.85" ry="13.16" transform="translate(-0.18 0.31) rotate(-0.07)" fill="#1788c1"/><line x1="255.19" y1="293.02" x2="170.31" y2="245.45"/><path d="M256.7,290.43l-8.44-4.73L228,274.34,203.47,260.6l-21.2-11.88c-3.43-1.92-6.81-4-10.3-5.78l-.14-.08c-3.38-1.89-6.4,3.29-3,5.18l8.44,4.73,20.27,11.36L222,277.87l21.2,11.88c3.43,1.93,6.82,4,10.3,5.78l.14.08c3.38,1.89,6.41-3.29,3-5.18Z" fill="#1788c1"/><line x1="338.02" y1="285.27" x2="260.59" y2="292.99"/><path d="M338,282.27l-26.23,2.62L270.15,289l-9.56.95a3.09,3.09,0,0,0-3,3,3,3,0,0,0,3,3l26.24-2.61,41.64-4.16,9.55-1a3.08,3.08,0,0,0,3-3,3,3,0,0,0-3-3Z" fill="#1788c1"/><line x1="263.61" y1="156.53" x2="255.19" y2="293.02"/><path d="M260.61,156.53l-.84,13.61-2,32.67-2.43,39.37-2.1,34c-.33,5.5-.92,11.05-1,16.57,0,.08,0,.16,0,.24a3,3,0,0,0,6,0l.84-13.61,2-32.67,2.43-39.38,2.1-34c.34-5.5.93-11.05,1-16.56a1.94,1.94,0,0,1,0-.24,3,3,0,1,0-6,0Z" fill="#1788c1"/><line x1="263.61" y1="156.53" x2="170.3" y2="243.61"/><path d="M261.48,154.4l-9.33,8.72-22.22,20.73-27,25.24-23.21,21.67c-3.77,3.52-7.71,6.92-11.34,10.58l-.16.15c-2.83,2.64,1.42,6.88,4.25,4.24l9.33-8.71L204,216.28l27-25.23,23.21-21.67c3.77-3.52,7.71-6.92,11.34-10.58l.16-.15c2.83-2.64-1.42-6.88-4.25-4.25Z" fill="#1788c1"/><line x1="170.3" y1="243.61" x2="49.93" y2="317.91"/><path d="M168.79,241l-12,7.41L128,266.22,93.33,287.59,63.21,306.18c-4.86,3-9.81,5.9-14.6,9l-.2.12c-3.28,2-.27,7.21,3,5.18l12-7.41L92.27,295.3l34.63-21.37L157,255.34c4.86-3,9.81-5.9,14.6-9l.2-.12c3.28-2,.27-7.22-3-5.18Z" fill="#1788c1"/><path d="M265.73,154.4l-19-18-30.19-28.66-6.94-6.59c-2.8-2.66-7.05,1.58-4.24,4.24l18.94,18,30.2,28.66,6.93,6.59c2.8,2.66,7-1.58,4.25-4.25Z" fill="#1788c1"/><path d="M173.31,245.45l-1.95-28.1-3.11-44.7-.7-10.15a3.08,3.08,0,0,0-3-3,3,3,0,0,0-3,3l1.95,28.1,3.11,44.71.7,10.14a3.07,3.07,0,0,0,3,3,3,3,0,0,0,3-3Z" fill="#1788c1"/><path d="M169.3,240.73l-9.16-1.8-22-4.31-26.47-5.19-23-4.51c-3.72-.73-7.44-1.52-11.18-2.19l-.15,0a3.08,3.08,0,0,0-3.69,2.09,3,3,0,0,0,2.09,3.69l9.16,1.8,22,4.31,26.47,5.19,23,4.51c3.73.73,7.44,1.52,11.18,2.19l.16,0a3.09,3.09,0,0,0,3.69-2.09,3,3,0,0,0-2.1-3.69Z" fill="#1788c1"/><path d="M340.61,283.76l-7.45-12.9L315.4,240.13,293.94,203l-18.56-32.1c-3-5.22-5.9-10.55-9.06-15.68a2.25,2.25,0,0,1-.12-.21c-1.94-3.34-7.12-.32-5.19,3l7.46,12.9,17.76,30.72,21.46,37.13,18.56,32.11c3,5.22,5.9,10.55,9.06,15.67l.12.21c1.93,3.35,7.12.33,5.18-3Z" fill="#1788c1"/><path d="M265.73,158.65l16.39-14.42,26.1-23,6-5.24a3,3,0,0,0-4.24-4.24L293.55,126.2l-26.11,23-6,5.24a3,3,0,0,0,4.25,4.25Z" fill="#1788c1"/><path d="M340.92,286.07l3-12.12,7.19-29.1,8.69-35.2,7.52-30.43c1.22-4.92,2.57-9.83,3.65-14.78a1.6,1.6,0,0,0,.05-.21c.93-3.75-4.85-5.35-5.78-1.59l-3,12.11-7.19,29.1-8.7,35.21-7.52,30.43c-1.21,4.92-2.56,9.83-3.65,14.78a1.46,1.46,0,0,1-.05.2c-.93,3.75,4.86,5.35,5.79,1.6Z" fill="#1788c1"/><path d="M343.14,287.84l9.35-4.09L374.81,274l27-11.82,23.33-10.23,7.72-3.38c1.21-.53,2.48-1,3.65-1.6l.16-.07c1.49-.65,1.83-2.82,1.08-4.11a3.08,3.08,0,0,0-4.11-1.07l-9.34,4.09L402,255.56l-27,11.82-23.33,10.23L343.92,281c-1.2.53-2.48,1-3.64,1.6l-.17.07c-1.48.65-1.82,2.83-1.07,4.11a3.06,3.06,0,0,0,4.1,1.07Z" fill="#1788c1"/><ellipse cx="459.2" cy="358.47" rx="10.65" ry="10.9" transform="translate(-0.42 0.54) rotate(-0.07)" fill="#1788c1"/><path d="M47.05,322.39l2,9.72,4.84,23.34,5.85,28.23,5,24.3c.82,3.94,1.44,8,2.46,11.88a1.36,1.36,0,0,1,0,.17,3,3,0,1,0,5.78-1.59l-2-9.72-4.84-23.34-5.85-28.23-5-24.3c-.81-3.94-1.44-8-2.46-11.88a.85.85,0,0,0,0-.17,3,3,0,0,0-3.69-2.1,3.07,3.07,0,0,0-2.09,3.69Z" fill="#1788c1"/><path d="M51.46,319l-17.1-9.9L7.12,293.34.89,289.73c-3.35-1.94-6.37,3.24-3,5.18l17.1,9.9,27.23,15.77,6.24,3.61c3.35,1.93,6.37-3.25,3-5.18Z" fill="#1788c1"/><path d="M340.11,287.84l11.72,7.31,28.11,17.54,33.88,21.13,29.28,18.26c4.73,2.95,9.39,6.09,14.23,8.87l.2.13c3.28,2.05,6.3-3.14,3-5.18l-11.71-7.31-28.12-17.54-33.88-21.13-29.27-18.26c-4.73-3-9.39-6.09-14.23-8.87l-.2-.13c-3.28-2.05-6.3,3.14-3,5.18Z" fill="#1788c1"/><path d="M462,358.49l-1.13-11.21-2.7-26.89L455,288l-2.83-28.11c-.45-4.54-.87-9.08-1.37-13.62a1.23,1.23,0,0,0,0-.19,3.08,3.08,0,0,0-3-3,3,3,0,0,0-3,3l1.13,11.2,2.7,26.9,3.26,32.4,2.82,28.11c.46,4.54.88,9.08,1.37,13.62,0,.07,0,.13,0,.2a3.08,3.08,0,0,0,3,3,3,3,0,0,0,3-3Z" fill="#1788c1"/><path d="M456.15,357.69l-6,20.67L440.6,411l-2.2,7.58c-1.09,3.71,4.7,5.3,5.78,1.59l6-20.66,9.53-32.69,2.2-7.58c1.09-3.71-4.7-5.3-5.78-1.59Z" fill="#1788c1"/><path d="M461.16,360.61l20.14-15.76,31.83-24.91,7.28-5.7c1.28-1,1.05-3.19,0-4.24a3.08,3.08,0,0,0-4.24,0L496,325.76,464.2,350.67l-7.28,5.7c-1.28,1-1.05,3.19,0,4.24a3.08,3.08,0,0,0,4.24,0Z" fill="#1788c1"/><ellipse cx="201.82" cy="352.25" rx="12.19" ry="12.47" transform="translate(-0.41 0.24) rotate(-0.07)" fill="#1788c1"/><path d="M255.55,292l-19.7,20.37-31.2,32.23L197.49,352c-2.69,2.77,1.55,7,4.24,4.24l19.71-20.37,31.19-32.23,7.17-7.4c2.68-2.78-1.55-7-4.25-4.25Z" fill="#1788c1"/><path d="M254.41,296.37l5.42,11.89,13,28.56,15.76,34.55,13.63,29.88,4.49,9.85c.71,1.55,1.34,3.17,2.14,4.68l.09.2a3,3,0,0,0,4.1,1.08,3.07,3.07,0,0,0,1.08-4.11l-5.42-11.89-13-28.56L279.94,338l-13.63-29.88-4.49-9.85c-.71-1.55-1.35-3.17-2.14-4.68l-.09-.2a3,3,0,0,0-4.11-1.08,3.08,3.08,0,0,0-1.07,4.11Z" fill="#1788c1"/><path d="M196.71,353.32,192,375.73l-7.62,35.85-1.74,8.19a3.07,3.07,0,0,0,2.09,3.69,3,3,0,0,0,3.7-2.1L193.14,399l7.62-35.85,1.74-8.19a3.07,3.07,0,0,0-2.1-3.69,3,3,0,0,0-3.69,2.1Z" fill="#1788c1"/></g></svg>